<svg width="242" height="233" viewBox="0 0 242 233" fill="none" xmlns="http://www.w3.org/2000/svg">
<path fill-rule="evenodd" clip-rule="evenodd" d="M90.0582 82.9C85.0385 86.579 81.2631 79.9054 79.9594 68.9771C77.0816 44.8542 86.2473 0 120.658 0C155.069 0 164.235 44.8542 161.357 68.9771C160.053 79.9054 156.278 86.579 151.258 82.9C146.209 79.2535 151.379 73.5964 161.357 68.9771C183.395 58.7749 228.889 53.6352 239.558 86.4C250.16 119.1 210.337 141.705 186.514 146.419C175.731 148.552 168.226 147.02 170.158 141.1C172.06 135.176 179.037 138.351 186.514 146.419C203.018 164.225 221.962 205.867 194.158 226.1C166.293 246.328 132.51 215.478 120.658 194.26C115.284 184.64 114.419 177 120.658 177C126.898 177 126.032 184.64 120.658 194.26C108.806 215.478 75.0235 246.328 47.1582 226.1C19.3546 205.867 38.2983 164.225 54.8025 146.419C62.2797 138.351 69.2563 135.176 71.1582 141.1C73.09 147.02 65.5851 148.552 54.8025 146.419C30.9795 141.705 -8.84336 119.1 1.75822 86.4C12.4274 53.6351 57.9216 58.7749 79.9594 68.9771C89.9376 73.5964 95.1071 79.2535 90.0582 82.9ZM120.658 105C115.354 105 110.267 107.107 106.516 110.858C102.765 114.609 100.658 119.696 100.658 125C100.658 130.304 102.765 135.391 106.516 139.142C110.267 142.893 115.354 145 120.658 145C125.963 145 131.05 142.893 134.8 139.142C138.551 135.391 140.658 130.304 140.658 125C140.658 119.696 138.551 114.609 134.8 110.858C131.05 107.107 125.963 105 120.658 105Z" fill="black"/>
<path d="M120.658 194.26C115.284 184.64 114.419 177 120.658 177C126.898 177 126.032 184.64 120.658 194.26Z" fill="black"/>
<path d="M186.514 146.419C175.731 148.552 168.226 147.02 170.158 141.1C172.06 135.176 179.037 138.351 186.514 146.419Z" fill="black"/>
<path d="M161.357 68.9771C160.053 79.9054 156.278 86.579 151.258 82.9C146.209 79.2535 151.379 73.5964 161.357 68.9771Z" fill="black"/>
<path d="M90.0582 82.9C85.0385 86.579 81.2631 79.9054 79.9594 68.9771C89.9376 73.5964 95.1071 79.2535 90.0582 82.9Z" fill="black"/>
<path d="M54.8025 146.419C62.2797 138.351 69.2563 135.176 71.1582 141.1C73.09 147.02 65.5851 148.552 54.8025 146.419Z" fill="black"/>
</svg>
